<svg width="1200" height="760" viewBox="0 0 1200 760" fill="none" xmlns="http://www.w3.org/2000/svg" role="img" aria-labelledby="title desc">
  <title id="title">Industrial LEL and fire gas detection system visual</title>
  <desc id="desc">A clean technical illustration of analyzers, fixed gas detectors, process piping and monitoring interfaces.</desc>
  <rect width="1200" height="760" rx="18" fill="#F4FAFD"/>
  <path d="M92 126H1108" stroke="#D8E6ED" stroke-width="2"/>
  <path d="M92 634H1108" stroke="#D8E6ED" stroke-width="2"/>
  <path d="M156 126V634" stroke="#E4EEF3" stroke-width="2"/>
  <path d="M1044 126V634" stroke="#E4EEF3" stroke-width="2"/>
  <rect x="680" y="170" width="288" height="412" rx="18" fill="white" stroke="#D5E4EB" stroke-width="3"/>
  <rect x="716" y="210" width="216" height="76" rx="10" fill="#223040"/>
  <rect x="742" y="232" width="100" height="10" rx="5" fill="#9AD7F2"/>
  <rect x="742" y="254" width="148" height="10" rx="5" fill="#6F8796"/>
  <rect x="716" y="324" width="216" height="48" rx="8" fill="#EFF7FB" stroke="#D5E4EB" stroke-width="2"/>
  <rect x="716" y="392" width="216" height="48" rx="8" fill="#EFF7FB" stroke="#D5E4EB" stroke-width="2"/>
  <rect x="716" y="460" width="216" height="48" rx="8" fill="#EFF7FB" stroke="#D5E4EB" stroke-width="2"/>
  <circle cx="900" cy="348" r="9" fill="#F0B44F"/>
  <circle cx="900" cy="416" r="9" fill="#9AD7F2"/>
  <circle cx="900" cy="484" r="9" fill="#2D4658"/>
  <path d="M256 348H680" stroke="#9BB1BE" stroke-width="14" stroke-linecap="round"/>
  <path d="M256 428H680" stroke="#D5E4EB" stroke-width="14" stroke-linecap="round"/>
  <path d="M300 272H584C623.764 272 656 304.236 656 344V428" stroke="#D5E4EB" stroke-width="14" stroke-linecap="round"/>
  <rect x="208" y="300" width="112" height="96" rx="14" fill="white" stroke="#D5E4EB" stroke-width="3"/>
  <circle cx="264" cy="348" r="30" fill="#EFF7FB" stroke="#2D4658" stroke-width="8"/>
  <circle cx="264" cy="348" r="9" fill="#F0B44F"/>
  <path d="M244 426H284" stroke="#2D4658" stroke-width="10" stroke-linecap="round"/>
  <path d="M264 396V426" stroke="#2D4658" stroke-width="10" stroke-linecap="round"/>
  <rect x="404" y="468" width="168" height="78" rx="14" fill="white" stroke="#D5E4EB" stroke-width="3"/>
  <rect x="432" y="494" width="84" height="9" rx="4.5" fill="#2D4658"/>
  <rect x="432" y="518" width="112" height="9" rx="4.5" fill="#9AD7F2"/>
  <circle cx="544" cy="509" r="12" fill="#F0B44F"/>
  <path d="M824 582V636" stroke="#2D4658" stroke-width="10" stroke-linecap="round"/>
  <path d="M784 636H864" stroke="#2D4658" stroke-width="10" stroke-linecap="round"/>
  <path d="M968 376H1076" stroke="#9BB1BE" stroke-width="12" stroke-linecap="round"/>
  <rect x="1068" y="336" width="82" height="80" rx="12" fill="white" stroke="#D5E4EB" stroke-width="3"/>
  <path d="M1109 336V308" stroke="#2D4658" stroke-width="8" stroke-linecap="round"/>
  <circle cx="1109" cy="376" r="24" fill="#EFF7FB" stroke="#2D4658" stroke-width="7"/>
  <circle cx="1109" cy="376" r="8" fill="#9AD7F2"/>
  <path d="M188 214H522" stroke="#D5E4EB" stroke-width="3" stroke-dasharray="10 13"/>
  <path d="M188 578H336" stroke="#D5E4EB" stroke-width="3" stroke-dasharray="10 13"/>
  <rect x="170" y="196" width="36" height="36" rx="8" fill="#D9F1FF" stroke="#9AD7F2" stroke-width="2"/>
  <rect x="318" y="560" width="36" height="36" rx="8" fill="#D9F1FF" stroke="#9AD7F2" stroke-width="2"/>
  <path d="M164 106L1040 106" stroke="white" stroke-width="18" stroke-linecap="round" opacity=".8"/>
  <path d="M216 654L984 654" stroke="white" stroke-width="18" stroke-linecap="round" opacity=".8"/>
</svg>
